<svg xmlns="http://www.w3.org/2000/svg" viewBox="0 0 192 192">
    <defs>
        <linearGradient id="bgGradient" x1="0%" y1="0%" x2="100%" y2="100%">
            <stop offset="0%" style="stop-color:#4a6cf7;stop-opacity:1" />
            <stop offset="100%" style="stop-color:#667eea;stop-opacity:1" />
        </linearGradient>
    </defs>
    <rect width="192" height="192" rx="40" fill="url(#bgGradient)"/>
    <path d="M96 64c-17.7 0-32 14.3-32 32s14.3 32 32 32 32-14.3 32-32-14.3-32-32-32zm0 48c-8.8 0-16-7.2-16-16s7.2-16 16-16 16 7.2 16 16-7.2 16-16 16z" fill="white"/>
    <path d="M128 120c0-8.8-7.2-16-16-16s-16 7.2-16 16 7.2 16 16 16 16-7.2 16-16zm-32 0c0-8.8-7.2-16-16-16s-16 7.2-16 16 7.2 16 16 16 16-7.2 16-16z" fill="rgba(255,255,255,0.8)"/>
</svg>